<svg t="1598493322873" class="icon" viewBox="0 0 1024 1024" version="1.1" xmlns="http://www.w3.org/2000/svg" p-id="1296" xmlns:xlink="http://www.w3.org/1999/xlink" width="200" height="200"><defs><style type="text/css"></style></defs><path d="M512 96c140.478 0 253.715 119.82 255.966 267.516L768 368v16h96c35.346 0 64 28.654 64 64v352c0 70.692-57.308 128-128 128H224c-70.692 0-128-57.308-128-128V448c0-35.346 28.654-64 64-64h96v-16c0-149.747 114.103-272 256-272zM256 448h-64c-17.673 0-32 14.327-32 32v320c0 34.993 28.084 63.426 62.942 63.991L224 864h576c34.993 0 63.426-28.084 63.991-62.942L864 800V480c0-17.673-14.327-32-32-32h-64v64c0 17.673-14.327 32-32 32-17.496 0-31.713-14.042-31.996-31.47L704 512v-64H320v64c0 17.673-14.327 32-32 32-17.496 0-31.713-14.042-32-31.47V448z m352 64c17.673 0 32 14.327 32 32 0 17.673-14.327 32-32 32H416c-17.673 0-32-14.327-32-32 0-17.673 14.327-32 32-32h192z m-96-352c-104.471 0-190.269 90.807-191.974 204.546L320 368v16h384v-16c0-115.35-86.474-208-192-208z" p-id="1297" fill="#1afa29"></path></svg>