<svg  width="1000" height="600" xmlns="http://www.w3.org/2000/svg">
    
    <path d="M889.56 69.39c0.07-59.76-48.31-108.26-108.07-108.33-51.51-0.06-95.92 36.19-106.17 86.67H324.73c-12.13-58.54-69.41-96.17-127.95-84.04-50.15 10.39-86.15 54.49-86.29 105.7V610.42c0 47.81 38.76 86.56 86.56 86.56h302.97v21.64c0.02 35.86 29.11 64.91 64.96 64.88 35.83-0.02 64.86-29.06 64.88-64.88v-21.64c143.41 0 259.69-116.28 259.69-259.69v-367.9z m-108.2 64.93l-3.83-0.11-1.99-0.15c-0.68-0.06-1.36-0.13-2.03-0.22l-1.62-0.22c-2.09-0.3-4.16-0.71-6.21-1.21l-1.51-0.41-2.23-0.65-1.58-0.52-2.01-0.71c-1.4-0.53-2.78-1.11-4.13-1.73l-0.65-0.32c-1.25-0.59-2.47-1.22-3.68-1.88l-1.34-0.76c-29.29-17.2-40.39-54.05-25.49-84.57l0.22-0.43a73.49 73.49 0 0 1 2.81-5.09l0.74-1.17c0.76-1.16 1.55-2.31 2.38-3.42l0.71-0.93a65.173 65.173 0 0 1 41.98-24.67l1.62-0.22c1.29-0.15 2.59-0.26 3.9-0.32h0.15l3.81-0.13 3.61 0.13-1.58-0.09 0.89 0.02 0.78 0.06h0.11l2.01 0.13c5.11 0.46 10.15 1.52 15.02 3.16l2.25 0.8c2.89 1.09 5.7 2.4 8.4 3.9l1.56 0.91a65.098 65.098 0 0 1 21.51 20.67l0.74 1.17c1 1.64 1.95 3.33 2.81 5.06l0.22 0.43c4.22 8.63 6.6 18.33 6.6 28.57a64.648 64.648 0 0 1-9.52 33.89l-0.84 1.3a66.556 66.556 0 0 1-3.46 4.85l-1 1.26a65.32 65.32 0 0 1-27.07 19.43l-2.01 0.71-1.58 0.52c-0.73 0.23-1.47 0.45-2.21 0.65l-1.54 0.41c-2.05 0.51-4.12 0.91-6.21 1.21l-1.62 0.22c-0.68 0.08-1.36 0.15-2.03 0.22l-1.84 0.13h-0.17l-3.85 0.12z m-562.67 0l-3.83-0.11-1.99-0.15c-0.68-0.06-1.36-0.13-2.03-0.22l-1.62-0.22c-2.09-0.3-4.16-0.71-6.21-1.21l-1.51-0.41-2.23-0.65-1.58-0.52-2.01-0.71c-1.4-0.53-2.78-1.11-4.13-1.73l-0.65-0.32c-1.25-0.59-2.47-1.22-3.68-1.88l-1.34-0.76c-29.29-17.2-40.39-54.05-25.49-84.57l0.22-0.43a73.49 73.49 0 0 1 2.81-5.09l0.74-1.17c0.76-1.16 1.55-2.31 2.38-3.42l0.71-0.93a65.173 65.173 0 0 1 41.98-24.67l1.62-0.22c1.29-0.15 2.59-0.26 3.9-0.32h0.15l3.81-0.13 3.61 0.13-1.58-0.09 0.89 0.02 0.78 0.06h0.11l2.01 0.13c5.11 0.46 10.15 1.52 15.02 3.16l2.25 0.8c2.89 1.09 5.7 2.4 8.4 3.9l1.56 0.91a65.098 65.098 0 0 1 21.51 20.67l0.74 1.17c1 1.64 1.95 3.33 2.81 5.06l0.22 0.43c4.22 8.66 6.6 18.35 6.6 28.57a64.74 64.74 0 0 1-9.52 33.89l-0.84 1.3a66.556 66.556 0 0 1-3.46 4.85l-1 1.26a65.32 65.32 0 0 1-27.07 19.43l-2.01 0.71-1.58 0.52c-0.73 0.23-1.47 0.45-2.21 0.65l-1.54 0.41c-2.05 0.51-4.12 0.91-6.21 1.21l-1.62 0.22c-0.68 0.08-1.36 0.15-2.03 0.22l-1.84 0.13h-0.17l-3.85 0.12z m0-43.29c11.95 0 21.64-9.69 21.64-21.64 0-11.95-9.69-21.64-21.64-21.64s-21.64 9.69-21.64 21.64c0 11.96 9.69 21.64 21.64 21.64z m562.67 0c11.95 0 21.64-9.69 21.64-21.64 0-11.95-9.69-21.64-21.64-21.64s-21.64 9.69-21.64 21.64c0 11.96 9.69 21.64 21.64 21.64zM500.03 653.7H197.05c-22.65 0.01-41.47-17.45-43.17-40.04l-0.11-3.25v-454.46c47.84 35.85 115.69 26.13 151.54-21.71a108.263 108.263 0 0 0 19.43-43.21h350.58c11.98 58.57 69.17 96.34 127.74 84.36 15.67-3.21 30.44-9.85 43.24-19.44l-0.02 151.49H586.59c-47.81 0-86.56 38.76-86.56 86.56V653.7z m129.84 0h-86.56v-259.69c-0.01-22.65 17.45-41.47 40.04-43.17l3.25-0.11h259.69v86.56c0 117.51-93.64 213.12-210.35 216.32l-6.07 0.09zM326.9 588.77c11.95 0 21.64-9.69 21.64-21.64v-64.92h64.92c11.95 0 21.64-9.69 21.64-21.64s-9.69-21.64-21.64-21.64h-64.92v-64.92c0-11.95-9.69-21.64-21.64-21.64-11.95 0-21.64 9.69-21.64 21.64v64.92h-64.92c-11.95 0-21.64 9.69-21.64 21.64s9.69 21.64 21.64 21.64h64.92v64.92c0 11.96 9.69 21.64 21.64 21.64z m324.61 21.65c81.5 0 148.4-64.5 151.38-145.95l0.11-5.5c0.02-11.95-9.65-21.66-21.6-21.68-10.98-0.02-20.23 8.18-21.53 19.09l-0.15 2.81c-0.14 59.66-48.55 107.94-108.2 107.94-11.95-0.01-21.65 9.68-21.65 21.63-0.01 11.95 9.68 21.65 21.63 21.65 0 0.01 0.01 0.01 0.01 0.01z m-86.56 129.84c-10.97 0-20.21-8.21-21.49-19.11l-0.15-2.53v-21.64h43.28v21.64c0 10.97-8.21 20.21-19.11 21.49l-2.53 0.15zM564.95 740.26c-10.97 0-20.21-8.21-21.49-19.11l-0.15-2.53v-21.64h43.28v21.64c0 10.97-8.21 20.21-19.11 21.49l-2.53 0.15zM629.87 653.7l6.06-0.09c114.7-3.16 207.1-95.57 210.26-210.26l0.09-6.06v-86.56H586.59l-3.25 0.11c-21.29 1.6-38.24 18.49-39.91 39.78l-0.13 3.4V653.7h86.57z m21.64-43.28c-11.95 0-21.64-9.69-21.64-21.64 0-11.95 9.69-21.64 21.64-21.64 59.67 0 108.07-48.3 108.2-107.97l0.15-2.81c1.41-11.87 12.18-20.35 24.04-18.93 10.91 1.3 19.12 10.57 19.09 21.55l-0.11 5.5c-2.97 81.44-69.86 145.93-151.37 145.94z"  horiz-adv-x="1024" />

    


  </font>
</defs></svg>